{"title":"The Truth About Emanuel 2013 BluRayRip.mp4","uid":9253166,"size":213080041,"categoryP":"video","categoryS":"movies","magnet":"?xt=urn:btih:68455d5f6d1000a5a8607b99d6fdccccc323a6b9&amp;dn=The+Truth+About+Emanuel+2013+BluRayRip.mp4&amp;tr=udp%3A%2F%2Ftracker.openbittorrent.com%3A80&amp;tr=udp%3A%2F%2Fopen.demonii.com%3A1337&amp;tr=udp%3A%2F%2Ftracker.coppersurfer.tk%3A6969&amp;tr=udp%3A%2F%2Fexodus.desync.com%3A6969","seeders":0,"leechers":1,"uploader":"globeplus","files":-1,"time":1385500343,"description":"Format                                   : MPEG-4\nFormat profile                           : Base Media / Version 2\nCodec ID                                 : mp42\nFile size                                : 203 MiB\nDuration                                 : 1h 35mn\nOverall bit rate mode                    : Variable\nOverall bit rate                         : 297 Kbps\n\nVideo\n\nID                                       : 201\nFormat                                   : AVC\nFormat/Info                              : Advanced Video Codec\nFormat profile                           : &lt;a class=&quot;__cf_email__&quot; href=&quot;/cdn-cgi/l/email-protection&quot; data-cfemail=&quot;276f4e404f676b150916&quot;&gt;[email&amp;#160;protected]&lt;/a&gt;&lt;script cf-hash='f9e31' type=&quot;text/javascript&quot;&gt;\n/* &lt;![CDATA[ */!function(){try{var t=&quot;currentScript&quot;in document?document.currentScript:function(){for(var t=document.getElementsByTagName(&quot;script&quot;),e=t.length;e--;)if(t[e].getAttribute(&quot;cf-hash&quot;))return t[e]}();if(t&amp;&amp;t.previousSibling){var e,r,n,i,c=t.previousSibling,a=c.getAttribute(&quot;data-cfemail&quot;);if(a){for(e=&quot;&quot;,r=parseInt(a.substr(0,2),16),n=2;a.length-n;n+=2)i=parseInt(a.substr(n,2),16)^r,e+=String.fromCharCode(i);e=document.createTextNode(e),c.parentNode.replaceChild(e,c)}}}catch(u){}}();/* ]]&gt; */&lt;/script&gt;\nFormat settings, CABAC                   : Yes\nFormat settings, ReFrames                : 2 frames\nCodec ID                                 : avc1\nCodec ID/Info                            : Advanced Video Coding\nDuration                                 : 1h 35mn\nBit rate                                 : 214 Kbps\nMaximum bit rate                         : 1 185 Kbps\nWidth                                    : 564 pixels\nHeight                                   : 240 pixels\nDisplay aspect ratio                     : 2.35:1\nFrame rate mode                          : Variable\nFrame rate                               : 23.976 fps\nMinimum frame rate                       : 12.000 fps\nMaximum frame rate                       : 24.000 fps\nColor space                              : YUV\nChroma subsampling                       : 4:2:0\nBit depth                                : 8 bits\nScan type                                : Progressive\nBits/(Pixel*Frame)                       : 0.066\nStream size                              : 146 MiB (72%)\nWriting library                          : x264 core 107\n                             : UTC 2013-11-25 10:27:01\n\nAudio\n\nID                                       : 101\nFormat                                   : AAC\nFormat/Info                              : Advanced Audio Codec\nFormat profile                           : LC\nCodec ID                                 : 40\nDuration                                 : 1h 35mn\nBit rate mode                            : Variable\nBit rate                                 : 80.0 Kbps\nMaximum bit rate                         : 106 Kbps\nChannel(s)                               : 2 channels\nChannel positions                        : Front: L R\nSampling rate                            : 44.1 KHz\nCompression mode                         : Lossy\nStream size                              : 54.8 MiB (27%)\n\nPlot\n\nA troubled young woman becomes obsessed with her mysterious new neighbor, who bears a striking resemblance to the girl's dead mother.\n\n\n\n* enjoy ... \n\n","torrent":{"xt":"urn:btih:68455d5f6d1000a5a8607b99d6fdccccc323a6b9","amp;dn":"The+Truth+About+Emanuel+2013+BluRayRip.mp4","amp;tr":["udp%3A%2F%2Ftracker.openbittorrent.com%3A80","udp%3A%2F%2Fopen.demonii.com%3A1337","udp%3A%2F%2Ftracker.coppersurfer.tk%3A6969","udp%3A%2F%2Fexodus.desync.com%3A6969"],"infoHash":"68455d5f6d1000a5a8607b99d6fdccccc323a6b9","infoHashBuffer":{"type":"Buffer","data":[104,69,93,95,109,16,0,165,168,96,123,153,214,253,204,204,195,35,166,185]},"announce":[],"urlList":[]}}